<svg width="118" height="24" viewBox="0 0 118 24" fill="none" xmlns="http://www.w3.org/2000/svg">
<path d="M7.15467 18.24C5.76267 18.24 4.59467 18.032 3.65067 17.616C2.70667 17.184 1.97867 16.632 1.46667 15.96C0.970672 15.272 0.706672 14.544 0.674672 13.776C0.674672 13.648 0.722672 13.536 0.818672 13.44C0.930672 13.328 1.05867 13.272 1.20267 13.272H2.42667C2.61867 13.272 2.76267 13.32 2.85867 13.416C2.95467 13.512 3.01867 13.624 3.05067 13.752C3.13067 14.136 3.32267 14.52 3.62667 14.904C3.94667 15.272 4.38667 15.584 4.94667 15.84C5.52267 16.08 6.25867 16.2 7.15467 16.2C8.53067 16.2 9.53867 15.96 10.1787 15.48C10.8347 14.984 11.1627 14.328 11.1627 13.512C11.1627 12.952 10.9867 12.504 10.6347 12.168C10.2987 11.816 9.77867 11.504 9.07467 11.232C8.37067 10.96 7.45867 10.664 6.33867 10.344C5.17067 10.008 4.20267 9.64 3.43467 9.24C2.66667 8.84 2.09067 8.344 1.70667 7.752C1.33867 7.16 1.15467 6.408 1.15467 5.496C1.15467 4.632 1.38667 3.864 1.85067 3.192C2.31467 2.504 2.97867 1.96 3.84267 1.56C4.72267 1.16 5.78667 0.959999 7.03467 0.959999C8.02667 0.959999 8.89067 1.096 9.62667 1.368C10.3787 1.624 11.0027 1.976 11.4987 2.424C11.9947 2.856 12.3707 3.328 12.6267 3.84C12.8827 4.336 13.0187 4.824 13.0347 5.304C13.0347 5.416 12.9947 5.528 12.9147 5.64C12.8347 5.736 12.7067 5.784 12.5307 5.784H11.2587C11.1467 5.784 11.0267 5.752 10.8987 5.688C10.7867 5.624 10.6987 5.504 10.6347 5.328C10.5387 4.672 10.1707 4.12 9.53067 3.672C8.89067 3.224 8.05867 3 7.03467 3C5.99467 3 5.14667 3.2 4.49067 3.6C3.85067 4 3.53067 4.624 3.53067 5.472C3.53067 6.016 3.68267 6.472 3.98667 6.84C4.29067 7.192 4.77067 7.504 5.42667 7.776C6.08267 8.048 6.93867 8.336 7.99467 8.64C9.27467 8.992 10.3227 9.368 11.1387 9.768C11.9547 10.152 12.5547 10.64 12.9387 11.232C13.3387 11.808 13.5387 12.552 13.5387 13.464C13.5387 14.472 13.2747 15.336 12.7467 16.056C12.2187 16.76 11.4747 17.304 10.5147 17.688C9.57067 18.056 8.45067 18.24 7.15467 18.24ZM16.9484 18C16.7884 18 16.6524 17.952 16.5404 17.856C16.4444 17.744 16.3964 17.608 16.3964 17.448V1.512C16.3964 1.352 16.4444 1.224 16.5404 1.128C16.6524 1.016 16.7884 0.959999 16.9484 0.959999H18.1484C18.3244 0.959999 18.4604 1.016 18.5564 1.128C18.6524 1.224 18.7004 1.352 18.7004 1.512V7.104C19.1324 6.56 19.6604 6.12 20.2844 5.784C20.9084 5.448 21.7004 5.28 22.6604 5.28C23.7004 5.28 24.5804 5.512 25.3004 5.976C26.0364 6.424 26.5884 7.056 26.9564 7.872C27.3404 8.672 27.5324 9.608 27.5324 10.68V17.448C27.5324 17.608 27.4844 17.744 27.3884 17.856C27.2924 17.952 27.1564 18 26.9804 18H25.7804C25.6204 18 25.4844 17.952 25.3724 17.856C25.2764 17.744 25.2284 17.608 25.2284 17.448V10.8C25.2284 9.68 24.9564 8.808 24.4124 8.184C23.8684 7.544 23.0684 7.224 22.0124 7.224C21.0204 7.224 20.2204 7.544 19.6124 8.184C19.0044 8.808 18.7004 9.68 18.7004 10.8V17.448C18.7004 17.608 18.6524 17.744 18.5564 17.856C18.4604 17.952 18.3244 18 18.1484 18H16.9484ZM36.1094 18.24C34.8934 18.24 33.8774 18.008 33.0614 17.544C32.2454 17.08 31.6214 16.44 31.1894 15.624C30.7574 14.792 30.5174 13.848 30.4694 12.792C30.4534 12.52 30.4454 12.176 30.4454 11.76C30.4454 11.328 30.4534 10.984 30.4694 10.728C30.5174 9.656 30.7574 8.712 31.1894 7.896C31.6374 7.08 32.2694 6.44 33.0854 5.976C33.9014 5.512 34.9094 5.28 36.1094 5.28C37.3094 5.28 38.3174 5.512 39.1334 5.976C39.9494 6.44 40.5734 7.08 41.0054 7.896C41.4534 8.712 41.7014 9.656 41.7494 10.728C41.7654 10.984 41.7734 11.328 41.7734 11.76C41.7734 12.176 41.7654 12.52 41.7494 12.792C41.7014 13.848 41.4614 14.792 41.0294 15.624C40.5974 16.44 39.9734 17.08 39.1574 17.544C38.3414 18.008 37.3254 18.24 36.1094 18.24ZM36.1094 16.392C37.1014 16.392 37.8934 16.08 38.4854 15.456C39.0774 14.816 39.3974 13.888 39.4454 12.672C39.4614 12.432 39.4694 12.128 39.4694 11.76C39.4694 11.392 39.4614 11.088 39.4454 10.848C39.3974 9.632 39.0774 8.712 38.4854 8.088C37.8934 7.448 37.1014 7.128 36.1094 7.128C35.1174 7.128 34.3174 7.448 33.7094 8.088C33.1174 8.712 32.8054 9.632 32.7734 10.848C32.7574 11.088 32.7494 11.392 32.7494 11.76C32.7494 12.128 32.7574 12.432 32.7734 12.672C32.8054 13.888 33.1174 14.816 33.7094 15.456C34.3174 16.08 35.1174 16.392 36.1094 16.392ZM45.3546 22.56C45.1946 22.56 45.0586 22.504 44.9466 22.392C44.8506 22.296 44.8026 22.168 44.8026 22.008V6.072C44.8026 5.912 44.8506 5.784 44.9466 5.688C45.0586 5.576 45.1946 5.52 45.3546 5.52H46.4586C46.6186 5.52 46.7466 5.576 46.8426 5.688C46.9546 5.784 47.0106 5.912 47.0106 6.072V7.128C47.3946 6.6 47.9066 6.16 48.5466 5.808C49.1866 5.456 49.9866 5.28 50.9466 5.28C51.8426 5.28 52.6026 5.432 53.2266 5.736C53.8666 6.04 54.3866 6.456 54.7866 6.984C55.2026 7.512 55.5146 8.112 55.7226 8.784C55.9306 9.456 56.0426 10.176 56.0586 10.944C56.0746 11.2 56.0826 11.472 56.0826 11.76C56.0826 12.048 56.0746 12.32 56.0586 12.576C56.0426 13.328 55.9306 14.048 55.7226 14.736C55.5146 15.408 55.2026 16.008 54.7866 16.536C54.3866 17.048 53.8666 17.464 53.2266 17.784C52.6026 18.088 51.8426 18.24 50.9466 18.24C50.0186 18.24 49.2346 18.072 48.5946 17.736C47.9706 17.384 47.4586 16.952 47.0586 16.44V22.008C47.0586 22.168 47.0106 22.296 46.9146 22.392C46.8186 22.504 46.6826 22.56 46.5066 22.56H45.3546ZM50.4426 16.296C51.2746 16.296 51.9226 16.12 52.3866 15.768C52.8666 15.4 53.2106 14.928 53.4186 14.352C53.6266 13.76 53.7466 13.128 53.7786 12.456C53.7946 11.992 53.7946 11.528 53.7786 11.064C53.7466 10.392 53.6266 9.768 53.4186 9.192C53.2106 8.6 52.8666 8.128 52.3866 7.776C51.9226 7.408 51.2746 7.224 50.4426 7.224C49.6586 7.224 49.0186 7.408 48.5226 7.776C48.0426 8.144 47.6826 8.616 47.4426 9.192C47.2186 9.752 47.0906 10.328 47.0586 10.92C47.0426 11.176 47.0346 11.48 47.0346 11.832C47.0346 12.184 47.0426 12.496 47.0586 12.768C47.0746 13.328 47.2026 13.88 47.4426 14.424C47.6986 14.968 48.0746 15.416 48.5706 15.768C49.0666 16.12 49.6906 16.296 50.4426 16.296ZM65.8223 18C65.6463 18 65.5103 17.952 65.4143 17.856C65.3183 17.744 65.2703 17.608 65.2703 17.448V1.752C65.2703 1.592 65.3183 1.464 65.4143 1.368C65.5103 1.256 65.6463 1.2 65.8223 1.2H67.0943C67.2543 1.2 67.3823 1.256 67.4783 1.368C67.5743 1.464 67.6223 1.592 67.6223 1.752V15.912H75.6143C75.7903 15.912 75.9263 15.968 76.0223 16.08C76.1183 16.176 76.1663 16.312 76.1663 16.488V17.448C76.1663 17.608 76.1183 17.744 76.0223 17.856C75.9263 17.952 75.7903 18 75.6143 18H65.8223ZM83.3359 18.24C82.1199 18.24 81.1039 18.008 80.2879 17.544C79.4719 17.08 78.8479 16.44 78.4159 15.624C77.9839 14.792 77.7439 13.848 77.6959 12.792C77.6799 12.52 77.6719 12.176 77.6719 11.76C77.6719 11.328 77.6799 10.984 77.6959 10.728C77.7439 9.656 77.9839 8.712 78.4159 7.896C78.8639 7.08 79.4959 6.44 80.3119 5.976C81.1279 5.512 82.1359 5.28 83.3359 5.28C84.5359 5.28 85.5439 5.512 86.3599 5.976C87.1759 6.44 87.7999 7.08 88.2319 7.896C88.6799 8.712 88.9279 9.656 88.9759 10.728C88.9919 10.984 88.9999 11.328 88.9999 11.76C88.9999 12.176 88.9919 12.52 88.9759 12.792C88.9279 13.848 88.6879 14.792 88.2559 15.624C87.8239 16.44 87.1999 17.08 86.3839 17.544C85.5679 18.008 84.5519 18.24 83.3359 18.24ZM83.3359 16.392C84.3279 16.392 85.1199 16.08 85.7119 15.456C86.3039 14.816 86.6239 13.888 86.6719 12.672C86.6879 12.432 86.6959 12.128 86.6959 11.76C86.6959 11.392 86.6879 11.088 86.6719 10.848C86.6239 9.632 86.3039 8.712 85.7119 8.088C85.1199 7.448 84.3279 7.128 83.3359 7.128C82.3439 7.128 81.5439 7.448 80.9359 8.088C80.3439 8.712 80.0319 9.632 79.9999 10.848C79.9839 11.088 79.9759 11.392 79.9759 11.76C79.9759 12.128 79.9839 12.432 79.9999 12.672C80.0319 13.888 80.3439 14.816 80.9359 15.456C81.5439 16.08 82.3439 16.392 83.3359 16.392ZM97.1172 23.28C96.0292 23.28 95.1332 23.136 94.4292 22.848C93.7412 22.56 93.1972 22.208 92.7972 21.792C92.4132 21.392 92.1332 20.984 91.9572 20.568C91.7972 20.168 91.7092 19.848 91.6932 19.608C91.6772 19.448 91.7252 19.312 91.8372 19.2C91.9652 19.088 92.1012 19.032 92.2452 19.032H93.3972C93.5412 19.032 93.6612 19.064 93.7572 19.128C93.8532 19.192 93.9332 19.328 93.9972 19.536C94.0932 19.776 94.2372 20.04 94.4292 20.328C94.6212 20.632 94.9172 20.888 95.3172 21.096C95.7172 21.32 96.2772 21.432 96.9972 21.432C97.7492 21.432 98.3812 21.328 98.8932 21.12C99.4052 20.928 99.7892 20.576 100.045 20.064C100.317 19.568 100.453 18.88 100.453 18V16.368C100.069 16.864 99.5652 17.28 98.9412 17.616C98.3172 17.936 97.5332 18.096 96.5892 18.096C95.6932 18.096 94.9252 17.944 94.2852 17.64C93.6452 17.32 93.1172 16.896 92.7012 16.368C92.3012 15.824 91.9972 15.208 91.7892 14.52C91.5972 13.832 91.4852 13.112 91.4532 12.36C91.4372 11.912 91.4372 11.472 91.4532 11.04C91.4852 10.288 91.5972 9.568 91.7892 8.88C91.9972 8.192 92.3012 7.576 92.7012 7.032C93.1172 6.488 93.6452 6.064 94.2852 5.76C94.9252 5.44 95.6932 5.28 96.5892 5.28C97.5492 5.28 98.3412 5.464 98.9652 5.832C99.6052 6.184 100.125 6.616 100.525 7.128V6.096C100.525 5.936 100.573 5.8 100.669 5.688C100.781 5.576 100.917 5.52 101.077 5.52H102.181C102.341 5.52 102.477 5.576 102.589 5.688C102.701 5.8 102.757 5.936 102.757 6.096V17.736C102.757 18.808 102.573 19.76 102.205 20.592C101.853 21.424 101.261 22.08 100.429 22.56C99.6132 23.04 98.5092 23.28 97.1172 23.28ZM97.0692 16.176C97.8692 16.176 98.5092 15.992 98.9892 15.624C99.4852 15.256 99.8452 14.792 100.069 14.232C100.309 13.672 100.437 13.104 100.453 12.528C100.469 12.304 100.477 12.032 100.477 11.712C100.477 11.376 100.469 11.096 100.453 10.872C100.437 10.296 100.309 9.728 100.069 9.168C99.8452 8.608 99.4852 8.144 98.9892 7.776C98.5092 7.408 97.8692 7.224 97.0692 7.224C96.2692 7.224 95.6292 7.408 95.1492 7.776C94.6692 8.128 94.3252 8.6 94.1172 9.192C93.9092 9.768 93.7892 10.392 93.7572 11.064C93.7412 11.48 93.7412 11.904 93.7572 12.336C93.7892 13.008 93.9092 13.64 94.1172 14.232C94.3252 14.808 94.6692 15.28 95.1492 15.648C95.6292 16 96.2692 16.176 97.0692 16.176ZM111.437 18.24C110.221 18.24 109.205 18.008 108.389 17.544C107.573 17.08 106.949 16.44 106.517 15.624C106.085 14.792 105.845 13.848 105.797 12.792C105.781 12.52 105.773 12.176 105.773 11.76C105.773 11.328 105.781 10.984 105.797 10.728C105.845 9.656 106.085 8.712 106.517 7.896C106.965 7.08 107.597 6.44 108.413 5.976C109.229 5.512 110.237 5.28 111.437 5.28C112.637 5.28 113.645 5.512 114.461 5.976C115.277 6.44 115.901 7.08 116.333 7.896C116.781 8.712 117.029 9.656 117.077 10.728C117.093 10.984 117.101 11.328 117.101 11.76C117.101 12.176 117.093 12.52 117.077 12.792C117.029 13.848 116.789 14.792 116.357 15.624C115.925 16.44 115.301 17.08 114.485 17.544C113.669 18.008 112.653 18.24 111.437 18.24ZM111.437 16.392C112.429 16.392 113.221 16.08 113.813 15.456C114.405 14.816 114.725 13.888 114.773 12.672C114.789 12.432 114.797 12.128 114.797 11.76C114.797 11.392 114.789 11.088 114.773 10.848C114.725 9.632 114.405 8.712 113.813 8.088C113.221 7.448 112.429 7.128 111.437 7.128C110.445 7.128 109.645 7.448 109.037 8.088C108.445 8.712 108.133 9.632 108.101 10.848C108.085 11.088 108.077 11.392 108.077 11.76C108.077 12.128 108.085 12.432 108.101 12.672C108.133 13.888 108.445 14.816 109.037 15.456C109.645 16.08 110.445 16.392 111.437 16.392Z" fill="#333333"/>
</svg>
