<svg width="25" height="24" viewBox="0 0 25 24" fill="none" xmlns="http://www.w3.org/2000/svg">
<path fill-rule="evenodd" clip-rule="evenodd" d="M8.00003 6V6.75H6.01303C5.05303 6.75 4.24903 7.474 4.14803 8.429L2.88503 20.429C2.85756 20.6903 2.88533 20.9545 2.96654 21.2045C3.04776 21.4544 3.1806 21.6844 3.35645 21.8797C3.5323 22.075 3.74723 22.2311 3.98731 22.338C4.22739 22.4448 4.48724 22.5 4.75003 22.5H20.25C20.5128 22.5 20.7727 22.4448 21.0127 22.338C21.2528 22.2311 21.4678 22.075 21.6436 21.8797C21.8195 21.6844 21.9523 21.4544 22.0335 21.2045C22.1147 20.9545 22.1425 20.6903 22.115 20.429L20.852 8.429C20.8036 7.96815 20.5862 7.54155 20.2418 7.23151C19.8974 6.92146 19.4504 6.74993 18.987 6.75H17V6C17 4.80653 16.5259 3.66193 15.682 2.81802C14.8381 1.97411 13.6935 1.5 12.5 1.5C11.3066 1.5 10.162 1.97411 9.31805 2.81802C8.47413 3.66193 8.00003 4.80653 8.00003 6ZM12.5 3C11.7044 3 10.9413 3.31607 10.3787 3.87868C9.8161 4.44129 9.50003 5.20435 9.50003 6V6.75H15.5V6C15.5 5.20435 15.184 4.44129 14.6213 3.87868C14.0587 3.31607 13.2957 3 12.5 3ZM9.50003 11.25C9.50003 12.0456 9.8161 12.8087 10.3787 13.3713C10.9413 13.9339 11.7044 14.25 12.5 14.25C13.2957 14.25 14.0587 13.9339 14.6213 13.3713C15.184 12.8087 15.5 12.0456 15.5 11.25V10.5C15.5 10.3011 15.579 10.1103 15.7197 9.96967C15.8604 9.82902 16.0511 9.75 16.25 9.75C16.4489 9.75 16.6397 9.82902 16.7804 9.96967C16.921 10.1103 17 10.3011 17 10.5V11.25C17 12.4435 16.5259 13.5881 15.682 14.432C14.8381 15.2759 13.6935 15.75 12.5 15.75C11.3066 15.75 10.162 15.2759 9.31805 14.432C8.47413 13.5881 8.00003 12.4435 8.00003 11.25V10.5C8.00003 10.3011 8.07905 10.1103 8.2197 9.96967C8.36035 9.82902 8.55112 9.75 8.75003 9.75C8.94894 9.75 9.13971 9.82902 9.28036 9.96967C9.42101 10.1103 9.50003 10.3011 9.50003 10.5V11.25Z" fill="#333333"/>
</svg>
