<svg width="25" height="24" viewBox="0 0 25 24" fill="none" xmlns="http://www.w3.org/2000/svg">
<path d="M16.25 10.5V6C16.25 5.00544 15.8549 4.05161 15.1516 3.34835C14.4484 2.64509 13.4945 2.25 12.5 2.25C11.5054 2.25 10.5516 2.64509 9.84833 3.34835C9.14507 4.05161 8.74998 5.00544 8.74998 6V10.5M20.106 8.507L21.369 20.507C21.439 21.172 20.919 21.75 20.25 21.75H4.74998C4.59219 21.7502 4.43613 21.7171 4.29193 21.6531C4.14774 21.589 4.01863 21.4953 3.91301 21.3781C3.80738 21.2608 3.7276 21.1227 3.67884 20.9726C3.63008 20.8226 3.61343 20.6639 3.62999 20.507L4.89399 8.507C4.92314 8.23056 5.05361 7.9747 5.26024 7.78876C5.46686 7.60281 5.73501 7.49995 6.01298 7.5H18.987C19.563 7.5 20.046 7.935 20.106 8.507ZM9.12498 10.5C9.12498 10.5995 9.08548 10.6948 9.01515 10.7652C8.94482 10.8355 8.84944 10.875 8.74998 10.875C8.65053 10.875 8.55515 10.8355 8.48482 10.7652C8.41449 10.6948 8.37498 10.5995 8.37498 10.5C8.37498 10.4005 8.41449 10.3052 8.48482 10.2348C8.55515 10.1645 8.65053 10.125 8.74998 10.125C8.84944 10.125 8.94482 10.1645 9.01515 10.2348C9.08548 10.3052 9.12498 10.4005 9.12498 10.5ZM16.625 10.5C16.625 10.5995 16.5855 10.6948 16.5152 10.7652C16.4448 10.8355 16.3494 10.875 16.25 10.875C16.1505 10.875 16.0551 10.8355 15.9848 10.7652C15.9145 10.6948 15.875 10.5995 15.875 10.5C15.875 10.4005 15.9145 10.3052 15.9848 10.2348C16.0551 10.1645 16.1505 10.125 16.25 10.125C16.3494 10.125 16.4448 10.1645 16.5152 10.2348C16.5855 10.3052 16.625 10.4005 16.625 10.5Z" stroke="#333333" stroke-width="1.5" stroke-linecap="round" stroke-linejoin="round"/>
</svg>
