<svg width="25" height="24" viewBox="0 0 25 24" fill="none" xmlns="http://www.w3.org/2000/svg">
<path d="M12.5 2.04004C7 2.04004 2.5 6.53004 2.5 12.06C2.5 17.06 6.16 21.21 10.94 21.96V14.96H8.4V12.06H10.94V9.85004C10.94 7.34004 12.43 5.96004 14.72 5.96004C15.81 5.96004 16.95 6.15004 16.95 6.15004V8.62004H15.69C14.45 8.62004 14.06 9.39004 14.06 10.18V12.06H16.84L16.39 14.96H14.06V21.96C16.4164 21.5879 18.5622 20.3856 20.1099 18.5701C21.6576 16.7546 22.5053 14.4457 22.5 12.06C22.5 6.53004 18 2.04004 12.5 2.04004Z" fill="#333333"/>
</svg>
