<svg width="25" height="24" viewBox="0 0 25 24" fill="none" xmlns="http://www.w3.org/2000/svg">
<path d="M11 6H20.75M11 6C11 6.39782 10.842 6.77936 10.5607 7.06066C10.2794 7.34196 9.89782 7.5 9.5 7.5C9.10218 7.5 8.72064 7.34196 8.43934 7.06066C8.15804 6.77936 8 6.39782 8 6M11 6C11 5.60218 10.842 5.22064 10.5607 4.93934C10.2794 4.65804 9.89782 4.5 9.5 4.5C9.10218 4.5 8.72064 4.65804 8.43934 4.93934C8.15804 5.22064 8 5.60218 8 6M8 6H4.25M11 18H20.75M11 18C11 18.3978 10.842 18.7794 10.5607 19.0607C10.2794 19.342 9.89782 19.5 9.5 19.5C9.10218 19.5 8.72064 19.342 8.43934 19.0607C8.15804 18.7794 8 18.3978 8 18M11 18C11 17.6022 10.842 17.2206 10.5607 16.9393C10.2794 16.658 9.89782 16.5 9.5 16.5C9.10218 16.5 8.72064 16.658 8.43934 16.9393C8.15804 17.2206 8 17.6022 8 18M8 18H4.25M17 12H20.75M17 12C17 12.3978 16.842 12.7794 16.5607 13.0607C16.2794 13.342 15.8978 13.5 15.5 13.5C15.1022 13.5 14.7206 13.342 14.4393 13.0607C14.158 12.7794 14 12.3978 14 12M17 12C17 11.6022 16.842 11.2206 16.5607 10.9393C16.2794 10.658 15.8978 10.5 15.5 10.5C15.1022 10.5 14.7206 10.658 14.4393 10.9393C14.158 11.2206 14 11.6022 14 12M14 12H4.25" stroke="#333333" stroke-width="1.5" stroke-linecap="round" stroke-linejoin="round"/>
</svg>
