<svg width="25" height="24" viewBox="0 0 25 24" fill="none" xmlns="http://www.w3.org/2000/svg">
<path d="M11.75 11.25L11.791 11.23C11.9192 11.1659 12.0631 11.14 12.2057 11.1552C12.3482 11.1703 12.4834 11.2261 12.5952 11.3157C12.7071 11.4054 12.7909 11.5252 12.8368 11.661C12.8826 11.7968 12.8886 11.9429 12.854 12.082L12.146 14.918C12.1111 15.0572 12.1169 15.2034 12.1627 15.3394C12.2084 15.4754 12.2922 15.5954 12.4041 15.6852C12.516 15.775 12.6513 15.8308 12.794 15.846C12.9367 15.8612 13.0807 15.8352 13.209 15.771L13.25 15.75M21.5 12C21.5 13.1819 21.2672 14.3522 20.8149 15.4442C20.3626 16.5361 19.6997 17.5282 18.864 18.364C18.0282 19.1997 17.0361 19.8626 15.9442 20.3149C14.8522 20.7672 13.6819 21 12.5 21C11.3181 21 10.1478 20.7672 9.05585 20.3149C7.96392 19.8626 6.97177 19.1997 6.13604 18.364C5.30031 17.5282 4.63738 16.5361 4.18508 15.4442C3.73279 14.3522 3.5 13.1819 3.5 12C3.5 9.61305 4.44821 7.32387 6.13604 5.63604C7.82387 3.94821 10.1131 3 12.5 3C14.8869 3 17.1761 3.94821 18.864 5.63604C20.5518 7.32387 21.5 9.61305 21.5 12ZM12.5 8.25H12.508V8.258H12.5V8.25Z" stroke="#333333" stroke-width="1.5" stroke-linecap="round" stroke-linejoin="round"/>
</svg>
