<svg width="25" height="24" viewBox="0 0 25 24" fill="none" xmlns="http://www.w3.org/2000/svg">
<rect x="3.5" y="3" width="18" height="18" rx="5" fill="#333333"/>
<path d="M17.225 7.1001C17.3908 7.1001 17.5497 7.16595 17.6669 7.28316C17.7842 7.40037 17.85 7.55934 17.85 7.7251C17.85 7.89086 17.7842 8.04983 17.6669 8.16704C17.5497 8.28425 17.3908 8.3501 17.225 8.3501C17.0592 8.3501 16.9003 8.28425 16.7831 8.16704C16.6658 8.04983 16.6 7.89086 16.6 7.7251C16.6 7.55934 16.6658 7.40037 16.7831 7.28316C16.9003 7.16595 17.0592 7.1001 17.225 7.1001ZM12.5 8.4501C13.5609 8.4501 14.5783 8.87152 15.3284 9.62167C16.0786 10.3718 16.5 11.3892 16.5 12.4501C16.5 13.511 16.0786 14.5284 15.3284 15.2785C14.5783 16.0287 13.5609 16.4501 12.5 16.4501C11.4391 16.4501 10.4217 16.0287 9.67157 15.2785C8.92143 14.5284 8.5 13.511 8.5 12.4501C8.5 11.3892 8.92143 10.3718 9.67157 9.62167C10.4217 8.87152 11.4391 8.4501 12.5 8.4501ZM12.5 9.2501C11.6513 9.2501 10.8374 9.58724 10.2373 10.1874C9.63714 10.7875 9.3 11.6014 9.3 12.4501C9.3 13.2988 9.63714 14.1127 10.2373 14.7128C10.8374 15.313 11.6513 15.6501 12.5 15.6501C13.3487 15.6501 14.1626 15.313 14.7627 14.7128C15.3629 14.1127 15.7 13.2988 15.7 12.4501C15.7 11.6014 15.3629 10.7875 14.7627 10.1874C14.1626 9.58724 13.3487 9.2501 12.5 9.2501Z" fill="#333333" stroke="white"/>
</svg>
