<svg width="25" height="24" viewBox="0 0 25 24" fill="none" xmlns="http://www.w3.org/2000/svg">
<path d="M17 12.0001C17 13.1935 16.5259 14.3381 15.682 15.182C14.8381 16.026 13.6935 16.5001 12.5 16.5001C11.3065 16.5001 10.1619 16.026 9.31802 15.182C8.47411 14.3381 8 13.1935 8 12.0001C8 10.8066 8.47411 9.66199 9.31802 8.81808C10.1619 7.97416 11.3065 7.50006 12.5 7.50006C13.6935 7.50006 14.8381 7.97416 15.682 8.81808C16.5259 9.66199 17 10.8066 17 12.0001ZM17 12.0001C17 13.6571 18.007 15.0001 19.25 15.0001C20.493 15.0001 21.5 13.6571 21.5 12.0001C21.5 9.91786 20.778 7.90009 19.457 6.29054C18.1361 4.68099 16.2979 3.57925 14.2557 3.17305C12.2136 2.76685 10.0937 3.08132 8.25737 4.06288C6.42104 5.04443 4.98187 6.63234 4.18506 8.55605C3.38825 10.4798 3.28311 12.6202 3.88756 14.6128C4.492 16.6053 5.76863 18.3266 7.49992 19.4834C9.23121 20.6402 11.31 21.1609 13.3822 20.9568C15.4544 20.7527 17.3917 19.8364 18.864 18.3641M17 12.0001V8.25006" stroke="#333333" stroke-width="1.5" stroke-linecap="round"/>
</svg>
