<svg width="25" height="24" viewBox="0 0 25 24" fill="none" xmlns="http://www.w3.org/2000/svg">
<path d="M11 1.5H8.75C8.15326 1.5 7.58097 1.73705 7.15901 2.15901C6.73705 2.58097 6.5 3.15326 6.5 3.75V20.25C6.5 20.8467 6.73705 21.419 7.15901 21.841C7.58097 22.2629 8.15326 22.5 8.75 22.5H16.25C16.8467 22.5 17.419 22.2629 17.841 21.841C18.2629 21.419 18.5 20.8467 18.5 20.25V3.75C18.5 3.15326 18.2629 2.58097 17.841 2.15901C17.419 1.73705 16.8467 1.5 16.25 1.5H14M11 1.5V3H14V1.5M11 1.5H14M11 20.25H14" stroke="#333333" stroke-width="1.5" stroke-linecap="round" stroke-linejoin="round"/>
</svg>
