<svg width="25" height="24" viewBox="0 0 25 24" fill="none" xmlns="http://www.w3.org/2000/svg">
<path d="M7.71705 10.907C7.47492 10.4714 7.09496 10.1284 6.63682 9.93202C6.17869 9.73564 5.66831 9.69695 5.18581 9.82202C4.7033 9.94709 4.27598 10.2288 3.97093 10.623C3.66588 11.0172 3.50037 11.5016 3.50037 12C3.50037 12.4985 3.66588 12.9828 3.97093 13.377C4.27598 13.7712 4.7033 14.053 5.18581 14.1781C5.66831 14.3031 6.17869 14.2644 6.63682 14.0681C7.09496 13.8717 7.47492 13.5287 7.71705 13.093M7.71705 10.907C7.89705 11.231 8.00005 11.603 8.00005 12C8.00005 12.397 7.89705 12.77 7.71705 13.093M7.71705 10.907L17.2831 5.59304M7.71705 13.093L17.2831 18.407M17.2831 5.59304C17.4233 5.85718 17.6148 6.0907 17.8464 6.27997C18.0779 6.46923 18.3449 6.61043 18.6317 6.69532C18.9184 6.7802 19.2192 6.80706 19.5165 6.77433C19.8138 6.7416 20.1015 6.64994 20.363 6.5047C20.6244 6.35946 20.8543 6.16356 21.0391 5.92845C21.2239 5.69334 21.36 5.42375 21.4395 5.13542C21.5189 4.8471 21.5401 4.54583 21.5017 4.24923C21.4633 3.95264 21.3662 3.66667 21.2161 3.40804C20.9201 2.89838 20.436 2.52518 19.8679 2.36865C19.2997 2.21213 18.6928 2.28478 18.1776 2.57099C17.6624 2.8572 17.2801 3.33412 17.1128 3.89923C16.9455 4.46434 17.0067 5.07252 17.2831 5.59304ZM17.2831 18.407C17.1395 18.6654 17.0483 18.9495 17.0145 19.2432C16.9808 19.5368 17.0052 19.8342 17.0865 20.1184C17.1677 20.4026 17.304 20.668 17.4878 20.8995C17.6716 21.131 17.8992 21.324 18.1576 21.4675C18.4159 21.6111 18.7 21.7023 18.9937 21.736C19.2873 21.7698 19.5847 21.7453 19.8689 21.6641C20.1531 21.5829 20.4185 21.4465 20.65 21.2628C20.8815 21.079 21.0745 20.8514 21.2181 20.593C21.5079 20.0712 21.5787 19.4556 21.4147 18.8817C21.2507 18.3077 20.8654 17.8224 20.3436 17.5325C19.8217 17.2427 19.2061 17.1719 18.6322 17.3359C18.0582 17.4999 17.5729 17.8852 17.2831 18.407Z" stroke="#333333" stroke-width="1.5" stroke-linecap="round" stroke-linejoin="round"/>
</svg>
