<svg width="25" height="24" viewBox="0 0 25 24" fill="none" xmlns="http://www.w3.org/2000/svg">
<path d="M14 21V13.5C14 13.3011 14.079 13.1103 14.2197 12.9697C14.3603 12.829 14.5511 12.75 14.75 12.75H17.75C17.9489 12.75 18.1397 12.829 18.2803 12.9697C18.421 13.1103 18.5 13.3011 18.5 13.5V21M14 21H2.85999M14 21H18.5M18.5 21H22.14M20.75 21V9.349C21.1486 9.11891 21.4889 8.80019 21.7446 8.41751C22.0003 8.03484 22.1645 7.59846 22.2245 7.14215C22.2846 6.68584 22.2388 6.22184 22.0908 5.78605C21.9428 5.35026 21.6965 4.95436 21.371 4.629L20.181 3.44C19.9 3.15862 19.5187 3.00035 19.121 3H5.87799C5.4803 3.00035 5.09903 3.15862 4.81799 3.44L3.62899 4.628C3.30423 4.95374 3.0586 5.3497 2.91106 5.78537C2.76351 6.22104 2.71799 6.68477 2.77799 7.14082C2.83799 7.59686 3.00191 8.03304 3.25713 8.41571C3.51234 8.79839 3.85202 9.11735 4.24999 9.348M4.24999 20.999V9.35C4.85001 9.69598 5.55124 9.82376 6.23473 9.71167C6.91823 9.59958 7.54191 9.25451 7.99999 8.735C8.28129 9.05445 8.62749 9.31022 9.01548 9.48525C9.40348 9.66028 9.82434 9.75054 10.25 9.75C11.146 9.75 11.95 9.357 12.5 8.734C12.7812 9.05363 13.1274 9.30959 13.5154 9.48479C13.9034 9.66 14.3243 9.75041 14.75 9.75C15.646 9.75 16.45 9.357 17 8.734C17.4582 9.25335 18.0819 9.59822 18.7654 9.71013C19.4489 9.82204 20.1501 9.6941 20.75 9.348M7.24999 17.999H11C11.1989 17.999 11.3897 17.92 11.5303 17.7793C11.671 17.6387 11.75 17.4479 11.75 17.249V13.5C11.75 13.3011 11.671 13.1103 11.5303 12.9697C11.3897 12.829 11.1989 12.75 11 12.75H7.24999C7.05108 12.75 6.86031 12.829 6.71966 12.9697C6.57901 13.1103 6.49999 13.3011 6.49999 13.5V17.25C6.49999 17.665 6.83599 17.999 7.24999 17.999Z" stroke="#333333" stroke-width="1.5" stroke-linecap="round" stroke-linejoin="round"/>
</svg>
