<svg width="38" height="38" viewBox="0 0 38 38" fill="none" xmlns="http://www.w3.org/2000/svg">
<path d="M21.7672 37V22C21.7672 21.6022 21.9131 21.2206 22.1728 20.9393C22.4325 20.658 22.7847 20.5 23.152 20.5H28.6911C29.0583 20.5 29.4105 20.658 29.6702 20.9393C29.9299 21.2206 30.0758 21.6022 30.0758 22V37M21.7672 37H1.1988M21.7672 37H30.0758M30.0758 37H36.7966M34.2301 37V13.698C34.9661 13.2378 35.5944 12.6004 36.0665 11.835C36.5386 11.0697 36.8418 10.1969 36.9527 9.2843C37.0635 8.37169 36.979 7.44368 36.7058 6.5721C36.4325 5.70051 35.9777 4.90872 35.3767 4.258L33.1796 1.88C32.6607 1.31723 31.9567 1.0007 31.2224 1H6.77111C6.03683 1.0007 5.33286 1.31723 4.81397 1.88L2.61865 4.256C2.01902 4.90748 1.56551 5.69941 1.29309 6.57074C1.02067 7.44208 0.936608 8.36955 1.04739 9.28163C1.15817 10.1937 1.46084 11.0661 1.93206 11.8314C2.40327 12.5968 3.03045 13.2347 3.76524 13.696M3.76524 36.998V13.7C4.87309 14.392 6.16781 14.6475 7.42978 14.4233C8.69176 14.1992 9.8433 13.509 10.6891 12.47C11.2085 13.1089 11.8477 13.6204 12.564 13.9705C13.2804 14.3206 14.0575 14.5011 14.8434 14.5C16.4977 14.5 17.9822 13.714 18.9977 12.468C19.5169 13.1073 20.156 13.6192 20.8724 13.9696C21.5888 14.32 22.366 14.5008 23.152 14.5C24.8063 14.5 26.2908 13.714 27.3063 12.468C28.1523 13.5067 29.304 14.1964 30.5659 14.4203C31.8279 14.6441 33.1225 14.3882 34.2301 13.696M9.30431 30.998H16.2281C16.5954 30.998 16.9476 30.84 17.2073 30.5587C17.467 30.2774 17.6129 29.8958 17.6129 29.498V22C17.6129 21.6022 17.467 21.2206 17.2073 20.9393C16.9476 20.658 16.5954 20.5 16.2281 20.5H9.30431C8.93704 20.5 8.58482 20.658 8.32513 20.9393C8.06544 21.2206 7.91954 21.6022 7.91954 22V29.5C7.91954 30.33 8.53992 30.998 9.30431 30.998Z" stroke="#333333" stroke-width="1.5" stroke-linecap="round" stroke-linejoin="round"/>
</svg>
