<svg width="25" height="24" viewBox="0 0 25 24" fill="none" xmlns="http://www.w3.org/2000/svg">
<path d="M11.98 3.49897C12.0223 3.3958 12.0944 3.30755 12.1869 3.24543C12.2795 3.18331 12.3885 3.15015 12.5 3.15015C12.6115 3.15015 12.7205 3.18331 12.8131 3.24543C12.9057 3.30755 12.9777 3.3958 13.02 3.49897L15.145 8.60997C15.1848 8.70561 15.2502 8.78841 15.334 8.84928C15.4178 8.91015 15.5168 8.94672 15.62 8.95497L21.138 9.39697C21.637 9.43697 21.839 10.06 21.459 10.385L17.255 13.987C17.1765 14.0542 17.118 14.1417 17.0859 14.2399C17.0537 14.3382 17.0493 14.4434 17.073 14.544L18.358 19.929C18.3839 20.037 18.3771 20.1503 18.3386 20.2545C18.3001 20.3587 18.2315 20.4491 18.1417 20.5144C18.0518 20.5797 17.9446 20.6168 17.8336 20.6212C17.7226 20.6256 17.6128 20.597 17.518 20.539L12.793 17.654C12.7048 17.6002 12.6034 17.5717 12.5 17.5717C12.3967 17.5717 12.2953 17.6002 12.207 17.654L7.48203 20.54C7.38729 20.598 7.27748 20.6266 7.16649 20.6222C7.05549 20.6178 6.94828 20.5807 6.8584 20.5154C6.76851 20.4501 6.69999 20.3597 6.66148 20.2555C6.62297 20.1513 6.6162 20.038 6.64203 19.93L7.92703 14.544C7.95086 14.4434 7.94648 14.3381 7.91437 14.2399C7.88226 14.1416 7.82366 14.0541 7.74503 13.987L3.54103 10.385C3.45684 10.3126 3.39594 10.2169 3.36598 10.11C3.33602 10.0031 3.33834 9.88971 3.37264 9.78412C3.40695 9.67852 3.47172 9.58543 3.55879 9.51654C3.64587 9.44766 3.75137 9.40606 3.86203 9.39697L9.38003 8.95497C9.48328 8.94672 9.58225 8.91015 9.66606 8.84928C9.74986 8.78841 9.81525 8.70561 9.85503 8.60997L11.98 3.49897Z" stroke="#333333" stroke-width="1.5" stroke-linecap="round" stroke-linejoin="round"/>
</svg>
